<svg xmlns="http://www.w3.org/2000/svg" width="45" height="153" viewBox="0 0 45 153" fill="none">
  <circle cx="22.5" cy="22.5" r="22.5" fill="white"/>
  <mask id="path-2-inside-1_47_1966" fill="white">
    <path fill-rule="evenodd" clip-rule="evenodd" d="M22.5465 13.1723C24.3808 12.0125 26.8176 11.6922 28.9227 12.3668C33.5018 13.8435 34.9233 18.8355 33.6519 22.8077C31.69 29.0463 23.3113 33.6999 22.956 33.8951C22.8296 33.965 22.6897 34 22.5499 34C22.41 34 22.2712 33.9662 22.1449 33.8973C21.7917 33.7044 13.474 29.1197 11.4467 22.8088C11.4456 22.8088 11.4456 22.8077 11.4456 22.8077C10.173 18.8344 11.59 13.8413 16.1646 12.3668C18.3126 11.6718 20.6534 11.9776 22.5465 13.1723ZM16.6835 13.9778C12.9821 15.1713 12.0525 19.1525 13.0577 22.2922C14.6393 27.2131 20.8881 31.1921 22.5487 32.1769C24.215 31.1819 30.5089 27.159 32.0398 22.2967C33.0449 19.1537 32.112 15.1725 28.4049 13.9778C26.6089 13.4013 24.5139 13.7521 23.0677 14.8713C22.7653 15.1036 22.3457 15.1082 22.0411 14.878C20.509 13.7262 18.5077 13.3889 16.6835 13.9778ZM27.3219 16.2181C28.8595 16.7156 29.9369 18.0773 30.0689 19.6872C30.1061 20.1531 29.7598 20.5615 29.2939 20.5987C29.2702 20.601 29.2476 20.6021 29.2239 20.6021C28.7873 20.6021 28.4173 20.267 28.3812 19.8248C28.3068 18.8975 27.6863 18.1145 26.8029 17.8291C26.3573 17.6847 26.1136 17.2075 26.2569 16.7642C26.4025 16.3197 26.8751 16.0782 27.3219 16.2181Z"/>
  </mask>
  <path fill-rule="evenodd" clip-rule="evenodd" d="M22.5465 13.1723C24.3808 12.0125 26.8176 11.6922 28.9227 12.3668C33.5018 13.8435 34.9233 18.8355 33.6519 22.8077C31.69 29.0463 23.3113 33.6999 22.956 33.8951C22.8296 33.965 22.6897 34 22.5499 34C22.41 34 22.2712 33.9662 22.1449 33.8973C21.7917 33.7044 13.474 29.1197 11.4467 22.8088C11.4456 22.8088 11.4456 22.8077 11.4456 22.8077C10.173 18.8344 11.59 13.8413 16.1646 12.3668C18.3126 11.6718 20.6534 11.9776 22.5465 13.1723ZM16.6835 13.9778C12.9821 15.1713 12.0525 19.1525 13.0577 22.2922C14.6393 27.2131 20.8881 31.1921 22.5487 32.1769C24.215 31.1819 30.5089 27.159 32.0398 22.2967C33.0449 19.1537 32.112 15.1725 28.4049 13.9778C26.6089 13.4013 24.5139 13.7521 23.0677 14.8713C22.7653 15.1036 22.3457 15.1082 22.0411 14.878C20.509 13.7262 18.5077 13.3889 16.6835 13.9778ZM27.3219 16.2181C28.8595 16.7156 29.9369 18.0773 30.0689 19.6872C30.1061 20.1531 29.7598 20.5615 29.2939 20.5987C29.2702 20.601 29.2476 20.6021 29.2239 20.6021C28.7873 20.6021 28.4173 20.267 28.3812 19.8248C28.3068 18.8975 27.6863 18.1145 26.8029 17.8291C26.3573 17.6847 26.1136 17.2075 26.2569 16.7642C26.4025 16.3197 26.8751 16.0782 27.3219 16.2181Z" fill="black"/>
  <path d="M22.5465 13.1723L21.4791 14.8636L22.5474 15.5379L23.6152 14.8628L22.5465 13.1723ZM28.9227 12.3668L29.5366 10.4633L29.5331 10.4622L28.9227 12.3668ZM33.6519 22.8077L31.7471 22.198L31.744 22.2078L33.6519 22.8077ZM22.956 33.8951L21.9932 32.1421L21.9874 32.1453L22.956 33.8951ZM22.1449 33.8973L21.186 35.6525L21.1882 35.6537L22.1449 33.8973ZM11.4467 22.8088L13.3509 22.1972L12.9049 20.8088H11.4467V22.8088ZM11.4456 22.8077L13.4456 22.8077L13.4456 22.4952L13.3503 22.1977L11.4456 22.8077ZM16.1646 12.3668L16.7781 14.2703L16.7802 14.2697L16.1646 12.3668ZM16.6835 13.9778L17.2973 15.8812L17.2979 15.881L16.6835 13.9778ZM13.0577 22.2922L11.1529 22.902L11.1536 22.9041L13.0577 22.2922ZM22.5487 32.1769L21.5285 33.8971L22.5522 34.5043L23.5741 33.8941L22.5487 32.1769ZM32.0398 22.2967L30.1348 21.6874L30.1321 21.696L32.0398 22.2967ZM28.4049 13.9778L29.0184 12.0742L29.0161 12.0735L28.4049 13.9778ZM23.0677 14.8713L24.2865 16.4569L24.2916 16.453L23.0677 14.8713ZM22.0411 14.878L23.2467 13.2823L23.2429 13.2794L22.0411 14.878ZM27.3219 16.2181L27.9376 14.3153L27.9286 14.3123L27.9195 14.3095L27.3219 16.2181ZM30.0689 19.6872L32.0626 19.5279L32.0622 19.5237L30.0689 19.6872ZM29.2939 20.5987L29.1346 18.6051L29.1194 18.6063L29.1043 18.6077L29.2939 20.5987ZM28.3812 19.8248L26.3876 19.9849L26.3878 19.9875L28.3812 19.8248ZM26.8029 17.8291L26.1864 19.7317L26.188 19.7322L26.8029 17.8291ZM26.2569 16.7642L24.3562 16.1418L24.3538 16.1492L26.2569 16.7642ZM23.6152 14.8628C24.9498 14.019 26.7717 13.7776 28.3124 14.2714L29.5331 10.4622C26.8635 9.60666 23.8119 10.0061 21.4777 11.4818L23.6152 14.8628ZM28.3089 14.2702C31.5136 15.3037 32.7968 18.9186 31.7471 22.198L35.5567 23.4174C37.0498 18.7525 35.4901 12.3833 29.5366 10.4633L28.3089 14.2702ZM31.744 22.2078C30.9417 24.7591 28.7318 27.1744 26.4285 29.0751C24.1796 30.931 22.1164 32.0744 21.9932 32.1421L23.9188 35.6481C24.1509 35.5206 26.4548 34.2396 28.9745 32.1603C31.4399 30.1257 34.4002 27.095 35.5598 23.4077L31.744 22.2078ZM21.9874 32.1453C22.1622 32.0485 22.3564 32 22.5499 32V36C23.0231 36 23.497 35.8816 23.9246 35.6449L21.9874 32.1453ZM22.5499 32C22.7347 32 22.9261 32.0455 23.1015 32.1409L21.1882 35.6537C21.6163 35.8869 22.0852 36 22.5499 36V32ZM23.1037 32.1422C22.9811 32.0752 20.9354 30.95 18.6956 29.104C16.4055 27.2164 14.1856 24.7956 13.3509 22.1972L9.54253 23.4205C10.7351 27.1329 13.6877 30.1599 16.1515 32.1906C18.6657 34.2629 20.9555 35.5266 21.186 35.6525L23.1037 32.1422ZM11.4467 20.8088C11.7965 20.8088 12.1919 20.9021 12.5557 21.1448C12.907 21.3791 13.1162 21.6771 13.2347 21.9141C13.3493 22.1434 13.3966 22.3484 13.4184 22.4792C13.4301 22.5493 13.4367 22.6122 13.4405 22.6653C13.4424 22.6922 13.4437 22.7175 13.4445 22.7411C13.4449 22.7529 13.4451 22.7644 13.4453 22.7754C13.4454 22.781 13.4455 22.7864 13.4455 22.7918C13.4455 22.7945 13.4455 22.7972 13.4456 22.7998C13.4456 22.8011 13.4456 22.8025 13.4456 22.8038C13.4456 22.8044 13.4456 22.8054 13.4456 22.8057C13.4456 22.8067 13.4456 22.8077 11.4456 22.8077C9.44557 22.8078 9.44557 22.8087 9.44557 22.8097C9.44557 22.81 9.44557 22.811 9.44557 22.8117C9.44557 22.813 9.44558 22.8143 9.44558 22.8156C9.44559 22.8183 9.44561 22.8209 9.44563 22.8236C9.44567 22.829 9.44574 22.8345 9.44583 22.84C9.44601 22.8511 9.44628 22.8625 9.44668 22.8744C9.44746 22.898 9.44873 22.9233 9.45065 22.9502C9.45445 23.0034 9.46107 23.0663 9.47278 23.1366C9.49461 23.2676 9.542 23.4729 9.65672 23.7024C9.77534 23.9398 9.98472 24.2381 10.3363 24.4726C10.7005 24.7155 11.0963 24.8088 11.4467 24.8088V20.8088ZM13.3503 22.1977C12.2986 18.914 13.581 15.3008 16.7781 14.2703L15.551 10.4632C9.5989 12.3817 8.04747 18.7548 9.54087 23.4177L13.3503 22.1977ZM16.7802 14.2697C18.3589 13.7589 20.0837 13.983 21.4791 14.8636L23.6139 11.4809C21.2232 9.97214 18.2662 9.58477 15.5489 10.4639L16.7802 14.2697ZM16.0697 12.0743C13.5804 12.877 11.9917 14.6549 11.2302 16.7104C10.4881 18.7134 10.53 20.9562 11.1529 22.902L14.9624 21.6823C14.5802 20.4885 14.5843 19.1709 14.981 18.1C15.3584 17.0816 16.0852 16.2721 17.2973 15.8812L16.0697 12.0743ZM11.1536 22.9041C12.1112 25.8835 14.3973 28.4019 16.4517 30.2114C18.5484 32.0582 20.6418 33.3712 21.5285 33.8971L23.5689 30.4567C22.7951 29.9977 20.9337 28.8288 19.0955 27.2097C17.2149 25.5533 15.5858 23.6218 14.9617 21.6802L11.1536 22.9041ZM23.5741 33.8941C24.4613 33.3643 26.5659 32.0385 28.6669 30.1879C30.7218 28.3779 33.0151 25.8585 33.9475 22.8973L30.1321 21.696C29.5335 23.5972 27.9144 25.5203 26.0231 27.1862C24.1779 28.8114 22.3024 29.9946 21.5233 30.4598L23.5741 33.8941ZM33.9447 22.9059C34.5676 20.9583 34.6085 18.7142 33.8643 16.7103C33.1007 14.654 31.5093 12.877 29.0184 12.0742L27.7914 15.8814C29.0075 16.2733 29.7362 17.0842 30.1145 18.1029C30.5123 19.174 30.5171 20.4921 30.1348 21.6874L33.9447 22.9059ZM29.0161 12.0735C26.616 11.3031 23.8304 11.7522 21.8437 13.2895L24.2916 16.453C25.1975 15.752 26.6018 15.4995 27.7937 15.8821L29.0161 12.0735ZM21.8488 13.2856C22.2505 12.9768 22.8233 12.9623 23.2467 13.2823L20.8354 16.4738C21.8681 17.254 23.2801 17.2305 24.2865 16.4569L21.8488 13.2856ZM23.2429 13.2794C21.192 11.7375 18.5134 11.2854 16.0691 12.0745L17.2979 15.881C18.502 15.4923 19.8261 15.7149 20.8392 16.4766L23.2429 13.2794ZM26.7062 18.121C27.475 18.3698 28.0095 19.0449 28.0756 19.8506L32.0622 19.5237C31.8643 17.1097 30.244 15.0615 27.9376 14.3153L26.7062 18.121ZM28.0753 19.8465C28.0249 19.2167 28.4941 18.6562 29.1346 18.6051L29.4532 22.5924C31.0255 22.4667 32.1873 21.0895 32.0626 19.5279L28.0753 19.8465ZM29.1043 18.6077C29.1402 18.6043 29.181 18.6021 29.2239 18.6021V22.6021C29.3143 22.6021 29.4002 22.5976 29.4835 22.5897L29.1043 18.6077ZM29.2239 18.6021C29.82 18.6021 30.3252 19.0575 30.3746 19.6621L26.3878 19.9875C26.5094 21.4766 27.7547 22.6021 29.2239 22.6021V18.6021ZM30.3748 19.6647C30.2355 17.9303 29.0703 16.4599 27.4179 15.926L26.188 19.7322C26.3023 19.7692 26.378 19.8646 26.3876 19.9849L30.3748 19.6647ZM27.4195 15.9265C28.0211 16.1215 28.3572 16.7691 28.16 17.3792L24.3538 16.1492C23.8701 17.6459 24.6936 19.248 26.1864 19.7317L27.4195 15.9265ZM28.1576 17.3865C27.9601 17.9899 27.3142 18.3115 26.7242 18.1268L27.9195 14.3095C26.4361 13.845 24.8448 14.6495 24.3562 16.1418L28.1576 17.3865Z" fill="#323232" mask="url(#path-2-inside-1_47_1966)"/>
  <circle cx="22.5" cy="76.5" r="22.5" fill="white"/>
  <path fill-rule="evenodd" clip-rule="evenodd" d="M22.3842 66C25.1592 66 27.4517 68.1145 27.7344 70.8189L27.8133 70.8198C29.3527 70.8198 31.2245 71.8422 31.8562 74.7098L32.6938 81.1935C32.9943 83.2861 32.6185 84.9646 31.5748 86.1686C30.5365 87.3662 28.893 88 26.8217 88H17.9587C15.6835 88 14.0985 87.4426 13.1121 86.2971C12.1216 85.1483 11.7904 83.4252 12.128 81.1766L12.9518 74.7789C13.4933 71.8454 15.4733 70.8198 17.0064 70.8198C17.1388 69.5994 17.6891 68.4384 18.5621 67.5681C19.5654 66.5712 20.9488 66 22.3619 66H22.3842ZM27.8133 72.4124H17.0064C16.5382 72.4124 14.9733 72.6013 14.5242 75.0262L13.7046 81.3963C13.4381 83.1831 13.6441 84.4763 14.3182 85.2587C14.9839 86.0316 16.1751 86.4075 17.9587 86.4075H26.8217C27.9343 86.4075 29.4536 86.1856 30.3709 85.126C31.0992 84.2862 31.3498 83.0356 31.1162 81.408L30.2891 74.9827C29.9367 73.3997 29.0066 72.4124 27.8133 72.4124ZM25.4806 75.3682C25.9201 75.3682 26.3012 75.7249 26.3012 76.1645C26.3012 76.604 25.9689 76.9607 25.5294 76.9607H25.4806C25.041 76.9607 24.6843 76.604 24.6843 76.1645C24.6843 75.7249 25.041 75.3682 25.4806 75.3682ZM19.2908 75.3682C19.7304 75.3682 20.1115 75.7249 20.1115 76.1645C20.1115 76.604 19.7781 76.9607 19.3386 76.9607H19.2908C18.8513 76.9607 18.4946 76.604 18.4946 76.1645C18.4946 75.7249 18.8513 75.3682 19.2908 75.3682ZM22.381 67.5925H22.365C21.366 67.5925 20.3924 67.9949 19.6864 68.6967C19.1113 69.2692 18.7352 70.0219 18.6135 70.8193L26.1294 70.8196C25.8566 68.9954 24.2791 67.5925 22.381 67.5925Z" fill="#323232"/>
  <circle cx="22.5" cy="130.5" r="22.5" fill="white"/>
  <path fill-rule="evenodd" clip-rule="evenodd" d="M26.7694 120C30.5023 120 33.011 122.615 33.011 126.505V135.495C33.011 139.385 30.5023 142 26.7694 142H17.2306C13.5033 142 11 139.385 11 135.495V126.505C11 122.615 13.5033 120 17.2306 120H26.7694ZM26.7694 121.654H17.2306C14.4505 121.654 12.6541 123.559 12.6541 126.505V135.495C12.6541 138.443 14.4505 140.346 17.2306 140.346H26.7694C29.5561 140.346 31.3569 138.443 31.3569 135.495V126.505C31.3569 123.559 29.5561 121.654 26.7694 121.654ZM27.4741 131.137C27.4811 131.143 27.4879 131.149 27.5023 131.162L27.5236 131.182C27.5279 131.186 27.5327 131.191 27.5379 131.196L27.5994 131.257C27.7983 131.456 28.348 132.018 29.9862 133.7C30.3049 134.026 30.2993 134.55 29.9718 134.869C29.6454 135.19 29.1205 135.18 28.8018 134.853C28.8018 134.853 26.5423 132.534 26.3813 132.378C26.2103 132.238 25.9357 132.156 25.6656 132.183C25.391 132.21 25.144 132.341 24.9686 132.554C22.4058 135.663 22.3749 135.693 22.333 135.733C21.3869 136.662 19.8595 136.647 18.9299 135.698C18.9299 135.698 17.9044 134.657 17.8867 134.636C17.632 134.4 17.1776 134.416 16.9053 134.703L15.218 136.482C15.0548 136.654 14.8365 136.74 14.6181 136.74C14.413 136.74 14.209 136.665 14.0491 136.513C13.7172 136.2 13.704 135.675 14.0182 135.345L15.7033 133.567C16.5954 132.619 18.1007 132.573 19.0523 133.466L20.1088 134.538C20.4032 134.836 20.8818 134.841 21.1773 134.55C21.2887 134.419 23.6905 131.502 23.6905 131.502C24.1471 130.949 24.7911 130.607 25.5068 130.536C26.2236 130.473 26.9194 130.682 27.4741 131.137ZM18.2321 125.105C19.7561 125.106 20.9945 126.345 20.9945 127.866C20.9945 129.389 19.755 130.628 18.2321 130.628C16.7092 130.628 15.4708 129.389 15.4708 127.866C15.4708 126.343 16.7092 125.105 18.2321 125.105ZM18.231 126.759C17.6212 126.759 17.1249 127.255 17.1249 127.866C17.1249 128.477 17.6212 128.974 18.2321 128.974C18.843 128.974 19.3404 128.477 19.3404 127.866C19.3404 127.256 18.843 126.76 18.231 126.759Z" fill="#323232"/>
</svg>