<svg width="22" height="23" viewBox="0 0 22 23" fill="none" xmlns="http://www.w3.org/2000/svg">
<g id="Social icon" clip-path="url(#clip0_47_2398)">
<path id="Vector" d="M11.1499 6.34485C8.25379 6.34485 5.91781 8.64433 5.91781 11.4952C5.91781 14.346 8.25379 16.6454 11.1499 16.6454C14.0459 16.6454 16.3819 14.346 16.3819 11.4952C16.3819 8.64433 14.0459 6.34485 11.1499 6.34485ZM11.1499 14.8435C9.27834 14.8435 7.74834 13.3419 7.74834 11.4952C7.74834 9.64839 9.27378 8.14678 11.1499 8.14678C13.0259 8.14678 14.5514 9.64839 14.5514 11.4952C14.5514 13.3419 13.0214 14.8435 11.1499 14.8435ZM17.8163 6.13418C17.8163 6.80206 17.2699 7.33547 16.5959 7.33547C15.9174 7.33547 15.3756 6.79758 15.3756 6.13418C15.3756 5.47078 15.922 4.93289 16.5959 4.93289C17.2699 4.93289 17.8163 5.47078 17.8163 6.13418ZM21.2815 7.3534C21.2041 5.74421 20.8307 4.3188 19.6332 3.14441C18.4401 1.97001 16.9921 1.60245 15.3574 1.52177C13.6725 1.42764 8.62262 1.42764 6.9378 1.52177C5.30763 1.59797 3.85959 1.96553 2.662 3.13992C1.46442 4.31432 1.09558 5.73973 1.01361 7.34891C0.917988 9.00741 0.917988 13.9784 1.01361 15.6369C1.09102 17.2461 1.46442 18.6715 2.662 19.8459C3.85959 21.0203 5.30307 21.3878 6.9378 21.4685C8.62262 21.5627 13.6725 21.5627 15.3574 21.4685C16.9921 21.3923 18.4401 21.0248 19.6332 19.8459C20.8262 18.6715 21.1996 17.2461 21.2815 15.6369C21.3772 13.9784 21.3772 9.01189 21.2815 7.3534ZM19.1049 17.4164C18.7498 18.295 18.0622 18.9718 17.1651 19.3259C15.8218 19.8504 12.6343 19.7294 11.1499 19.7294C9.66539 19.7294 6.47334 19.8459 5.13459 19.3259C4.24209 18.9763 3.5545 18.2995 3.19477 17.4164C2.662 16.0941 2.78495 12.9564 2.78495 11.4952C2.78495 10.0339 2.66656 6.89171 3.19477 5.57388C3.54995 4.69532 4.23754 4.01848 5.13459 3.66437C6.47789 3.13992 9.66539 3.26095 11.1499 3.26095C12.6343 3.26095 15.8264 3.14441 17.1651 3.66437C18.0576 4.01399 18.7452 4.69084 19.1049 5.57388C19.6377 6.89619 19.5148 10.0339 19.5148 11.4952C19.5148 12.9564 19.6377 16.0986 19.1049 17.4164Z" fill="black"/>
</g>
<defs>
<clipPath id="clip0_47_2398">
<rect width="20.4" height="22.95" fill="white" transform="translate(0.945312 0.0249023)"/>
</clipPath>
</defs>
</svg>
