<svg xmlns="http://www.w3.org/2000/svg" width="52" height="52" viewBox="0 0 52 52" fill="none">
  <path fill-rule="evenodd" clip-rule="evenodd" d="M23.6899 31.3809L33.182 46.7805C33.5973 47.4554 34.2462 47.4476 34.5083 47.4113C34.7705 47.3749 35.4012 47.214 35.6296 46.4483L47.4992 6.35948C47.7069 5.65088 47.3253 5.1681 47.154 4.9968C46.9879 4.82549 46.5129 4.45951 45.8251 4.65418L5.70771 16.4018C4.9472 16.625 4.78108 17.2635 4.74475 17.5257C4.70841 17.793 4.69803 18.4549 5.37028 18.878L20.9464 28.6192L34.7082 14.7121C35.4635 13.949 36.6964 13.9412 37.4621 14.6965C38.2278 15.4518 38.233 16.6873 37.4777 17.4504L23.6899 31.3809ZM34.3059 51.3202C32.4993 51.3202 30.8434 50.4014 29.8674 48.8233L19.8043 32.4944L3.30679 22.177C1.52882 21.0635 0.599596 19.0804 0.887706 16.9962C1.17322 14.9119 2.60339 13.2559 4.61237 12.6668L44.7297 0.919131C46.5752 0.379249 48.553 0.89058 49.9131 2.24548C51.2732 3.61335 51.7794 5.61195 51.2291 7.4652L39.3595 47.5514C38.7651 49.5682 37.1039 50.9932 35.0248 51.2709C34.7809 51.302 34.5447 51.3202 34.3059 51.3202Z" fill="#323232"/>
</svg>