<svg width="24" height="20" viewBox="0 0 24 20" fill="none" xmlns="http://www.w3.org/2000/svg">
<g id="Social icon" clip-path="url(#clip0_47_2395)">
<path id="Vector" d="M20.9069 5.06111C20.9215 5.25798 20.9215 5.45489 20.9215 5.65175C20.9215 11.6564 16.1888 18.5752 7.53878 18.5752C4.87388 18.5752 2.39832 17.8298 0.315918 16.5361C0.694549 16.5783 1.05857 16.5924 1.45177 16.5924C3.65063 16.5924 5.67481 15.8752 7.29122 14.6518C5.22338 14.6096 3.49047 13.3018 2.89341 11.5017C3.18468 11.5439 3.4759 11.572 3.78174 11.572C4.20403 11.572 4.62636 11.5158 5.01952 11.4174C2.86432 10.9955 1.24786 9.16737 1.24786 6.95956V6.90333C1.87401 7.24083 2.60218 7.45177 3.37393 7.47986C2.10701 6.66422 1.277 5.27205 1.277 3.69704C1.277 2.8533 1.50995 2.07987 1.91772 1.40486C4.23312 4.16111 7.71351 5.96108 11.6161 6.15799C11.5433 5.82048 11.4996 5.46896 11.4996 5.11739C11.4996 2.61423 13.5966 0.575195 16.2032 0.575195C17.5575 0.575195 18.7807 1.12363 19.6399 2.00957C20.7029 1.8127 21.7223 1.433 22.6252 0.912698C22.2756 1.96741 21.533 2.85335 20.5573 3.41581C21.5039 3.31742 22.4213 3.06424 23.2659 2.71271C22.6253 3.61267 21.8243 4.4142 20.9069 5.06111Z" fill="black"/>
</g>
<defs>
<clipPath id="clip0_47_2395">
<rect width="22.95" height="19.125" fill="white" transform="translate(0.315918 0.575195)"/>
</clipPath>
</defs>
</svg>
